<svg width="80" height="80" viewBox="0 0 80 80" fill="none" xmlns="http://www.w3.org/2000/svg">
<path d="M79.5 40C79.5 18.2239 61.7761 0.5 40 0.5M79.5 40C79.5 61.7761 61.7761 79.5 40 79.5M79.5 40C79.5 61.8239 61.8239 79.5 40 79.5M79.5 40C79.5 18.1761 61.8239 0.5 40 0.5M40 0.5C18.2239 0.5 0.5 18.2239 0.5 40M40 0.5C18.1761 0.5 0.5 18.1761 0.5 40M40 79.5C18.2239 79.5 0.5 61.7761 0.5 40M40 79.5C18.1761 79.5 0.5 61.8239 0.5 40" fill="#004246" stroke="#004246"/>
<path fill-rule="evenodd" clip-rule="evenodd" d="M58.8104 31.7639L33.7339 56.5418L20.1875 43.1567L25.8104 37.4661L33.7339 45.2953L53.1875 26.0732L58.8104 31.7639Z" stroke="#004246"/>
</svg>
