<svg width="20" height="21" viewBox="0 0 20 21" fill="none" xmlns="http://www.w3.org/2000/svg">
<path d="M16.7517 13.6168C16.2605 13.211 15.7284 12.8459 15.1963 12.4807C14.132 11.7502 13.1905 11.7094 12.4128 12.8864C11.9625 13.5357 11.3485 13.5763 10.7345 13.2922C8.9744 12.4806 7.5827 11.2631 6.80497 9.47742C6.43657 8.70633 6.43656 7.97587 7.29616 7.4077C7.74642 7.12362 8.15574 6.75828 8.15574 6.10894C8.11481 5.25669 6.06817 2.45645 5.24951 2.17237C4.92204 2.05062 4.59458 2.05062 4.22618 2.17237C2.30232 2.8217 1.52455 4.36397 2.30228 6.19023C4.55361 11.669 8.52413 15.4837 13.9682 17.8376C14.2957 17.9593 14.6232 18.0405 14.7869 18.0811C16.0149 18.0811 17.4885 16.9041 17.8979 15.7272C18.3072 14.5909 17.4476 14.1444 16.7517 13.6168Z" fill="#FFFBFA"/>
</svg>
