<svg width="20" height="21" viewBox="0 0 20 21" fill="none" xmlns="http://www.w3.org/2000/svg">
<path d="M2.10744 9.56282C2.10744 9.56282 10.0684 6.2956 12.8294 5.14517C13.8878 4.685 17.4772 3.21245 17.4772 3.21245C17.4772 3.21245 19.1338 2.56821 18.9957 4.13279C18.9497 4.77703 18.5816 7.03187 18.2134 9.47078C17.6612 12.9221 17.063 16.6955 17.063 16.6955C17.063 16.6955 16.971 17.7539 16.1887 17.9379C15.4064 18.122 14.1179 17.2937 13.8878 17.1096C13.7038 16.9716 10.4365 14.9008 9.2401 13.8884C8.91798 13.6123 8.54984 13.0601 9.28612 12.4159C10.9427 10.8973 12.9215 9.01061 14.1179 7.81417C14.6701 7.26196 15.2223 5.97348 12.9215 7.53806C9.65425 9.7929 6.43305 11.9097 6.43305 11.9097C6.43305 11.9097 5.69678 12.3699 4.31626 11.9557C2.93575 11.5416 1.32515 10.9893 1.32515 10.9893C1.32515 10.9893 0.220737 10.2991 2.10744 9.56282Z" fill="#FFFBFA"/>
</svg>
