<svg width="190" height="60" viewBox="0 0 190 60" fill="none" xmlns="http://www.w3.org/2000/svg">
<path d="M19.0352 44.9722L22.4987 48.4358V16.4268C21.3243 16.5233 20.1634 16.7434 19.0352 17.0833V44.9722Z" fill="#F1A482"/>
<path d="M25.9609 48.4366L29.4245 44.9731V17.0677C28.2962 16.7278 27.1353 16.5077 25.9609 16.4111V48.4366Z" fill="#F1A482"/>
<path d="M32.8869 14.6874C34.4449 15.4327 35.8614 16.4436 37.0727 17.6749L38.8701 14.6053C36.1945 12.1431 31.5655 9.39355 24.228 9.39355C16.8906 9.39355 12.2616 12.1348 9.58594 14.6053L11.3834 17.6749C12.5979 16.4438 14.017 15.4329 15.5774 14.6874C16.6828 14.157 17.841 13.7444 19.0327 13.4562C20.1702 13.1801 21.3287 12.9989 22.4963 12.9146C23.0544 12.8735 23.6289 12.8571 24.228 12.8571C24.8272 12.8571 25.4017 12.8571 25.9598 12.9146C27.1274 12.9982 28.2859 13.1794 29.4233 13.4562C30.6177 13.7445 31.7785 14.1571 32.8869 14.6874Z" fill="#F1A482"/>
<path d="M32.8869 46.4091L29.4234 49.8398L28.7011 50.5539L24.2281 55.0352L19.755 50.5539L19.0327 49.8398L15.5774 46.3763L13.1152 43.9141C11.9993 44.5635 10.7763 45.0082 9.50391 45.2273L24.2773 60.0007L39.0507 45.2273C37.7821 45.0129 36.5619 44.5737 35.4476 43.9305L32.8869 46.4091Z" fill="#F1A482"/>
<path d="M13.3617 39.3014C14.572 37.92 15.2424 36.1479 15.2494 34.3113V33.9912H11.7695V34.3113C11.7673 35.4142 11.3282 36.4714 10.5483 37.2513C9.7684 38.0312 8.71125 38.4703 7.6083 38.4725C7.17955 38.4698 6.75358 38.4034 6.34436 38.2755C5.50632 38.0038 4.77564 37.474 4.25677 36.762C3.73789 36.0501 3.45738 35.1923 3.45533 34.3113V33.9912H5.75744e-09V34.3113C-6.99311e-05 36.1108 0.637014 37.8522 1.79832 39.2269C2.95962 40.6015 4.57013 41.5206 6.34436 41.8211C6.76199 41.8927 7.18462 41.9311 7.6083 41.936C8.69872 41.9337 9.77592 41.6973 10.7671 41.2428C11.7583 40.7883 12.6403 40.1262 13.3535 39.3014H13.3617Z" fill="#F1A482"/>
<path d="M7.61594 18.085L6.34379 20.2517L2.88845 26.1611L0.335938 30.5192H2.33855H2.88845H4.34117L6.34379 27.1049L7.61594 24.9382L9.80733 28.6808L10.8825 30.5192H12.8933H13.2709H14.8959L13.2709 27.7369L9.80733 21.8276L7.61594 18.085Z" fill="#F1A482"/>
<path d="M35.5729 30.5192H37.5838L38.6589 28.6808L40.8503 24.9382L42.1225 27.1049L44.1251 30.5192H45.586H46.1277H48.1303L45.586 26.1611L42.1225 20.2517L40.8503 18.085L38.6589 21.8276L35.1954 27.7369L33.5703 30.5192H35.1954H35.5729Z" fill="#F1A482"/>
<path d="M45.6174 33.9912H45.0429V34.3113C45.0409 35.1923 44.7604 36.0501 44.2415 36.762C43.7226 37.474 42.9919 38.0038 42.1539 38.2755C41.745 38.4047 41.3188 38.4711 40.89 38.4725C39.7884 38.4681 38.7334 38.0281 37.9552 37.2484C37.1771 36.4687 36.7391 35.4128 36.737 34.3113V33.9912H33.2734V34.3113C33.2778 36.3307 34.0813 38.2664 35.5085 39.6951C36.9358 41.1239 38.8705 41.9295 40.89 41.936C41.3136 41.9311 41.7363 41.8927 42.1539 41.8211C43.9289 41.5208 45.5404 40.602 46.7031 39.2275C47.8657 37.8531 48.5046 36.1115 48.5065 34.3113V33.9912H45.6174Z" fill="#F1A482"/>
<path d="M6.21846 12.5122C6.42365 12.5122 6.62883 12.5122 6.83402 12.5122C7.27299 12.47 7.70548 12.3764 8.12259 12.2332C8.97042 11.9683 9.75178 11.5251 10.4143 10.9334C11.0767 10.3417 11.605 9.61512 11.9637 8.80248C12.2203 8.22686 12.3864 7.61503 12.4561 6.98865H8.89409C8.76083 7.48733 8.49068 7.93876 8.11421 8.2919C7.73774 8.64504 7.26996 8.88579 6.76378 8.98691C6.2576 9.08803 5.73323 9.04549 5.24997 8.8641C4.76671 8.68271 4.34386 8.36971 4.02923 7.9605C3.7146 7.55129 3.52076 7.06221 3.46963 6.54857C3.4185 6.03493 3.51213 5.51723 3.73991 5.05403C3.96769 4.59083 4.32055 4.20061 4.75857 3.92751C5.19659 3.65441 5.70228 3.50932 6.21846 3.50867H42.2163C42.7362 3.50499 43.2466 3.64748 43.6894 3.91985C44.1322 4.19222 44.4895 4.58353 44.7207 5.04917C44.9519 5.51481 45.0476 6.03604 44.9968 6.55343C44.9461 7.07081 44.751 7.56353 44.4338 7.9754C44.1166 8.38728 43.6901 8.70173 43.2028 8.88291C42.7155 9.06409 42.1871 9.10471 41.6779 9.00013C41.1687 8.89555 40.6991 8.65 40.3226 8.29145C39.9462 7.93289 39.6781 7.47577 39.5489 6.97222H36.0279C36.1016 7.59783 36.2675 8.2091 36.5203 8.78608C36.8733 9.58406 37.3894 10.2994 38.0354 10.886C38.6814 11.4726 39.4429 11.9175 40.2712 12.1922C40.6883 12.3353 41.1207 12.429 41.5597 12.4712H41.6008C41.8059 12.4712 42.0111 12.4712 42.2163 12.4712C43.0539 12.5016 43.8891 12.3629 44.6719 12.0633C45.4548 11.7637 46.1692 11.3094 46.7725 10.7276C47.3758 10.1458 47.8557 9.44831 48.1835 8.67687C48.5113 7.90543 48.6802 7.07584 48.6802 6.23766C48.6802 5.39947 48.5113 4.56988 48.1835 3.79844C47.8557 3.027 47.3758 2.32955 46.7725 1.74771C46.1692 1.16587 45.4548 0.711596 44.6719 0.412021C43.8891 0.112447 43.0539 -0.0262954 42.2163 0.0041037H6.21846C4.60436 0.0626821 3.07591 0.745069 1.95473 1.90769C0.833538 3.0703 0.207031 4.6225 0.207031 6.23766C0.207031 7.85282 0.833538 9.40501 1.95473 10.5676C3.07591 11.7302 4.60436 12.4126 6.21846 12.4712V12.5122Z" fill="#F1A482"/>
<path d="M63.3636 0.395508H67.0115V9.81987L74.5367 0.395508H77.7019V16.1582H74.0303V6.71008L66.505 16.1582H63.3398L63.3636 0.395508Z" fill="#FFFBFA"/>
<path d="M81.7465 0.395508H92.8247V3.5607H85.3944V16.174H81.7148L81.7465 0.395508Z" fill="#FFFBFA"/>
<path d="M94.3672 8.25326C94.3656 7.50964 94.4668 6.76937 94.6679 6.05345C94.8712 5.35913 95.1638 4.69416 95.5384 4.0752C95.9152 3.46463 96.3671 2.9037 96.8836 2.40555C97.4083 1.90757 97.9931 1.47695 98.6244 1.12365C99.2731 0.756589 99.9676 0.477207 100.69 0.292799C102.192 -0.0975997 103.769 -0.0975997 105.271 0.292799C106.698 0.671241 108.008 1.3971 109.085 2.40555C110.139 3.40096 110.907 4.66063 111.309 6.05345C111.71 7.49259 111.71 9.01392 111.309 10.4531C111.106 11.1474 110.813 11.8124 110.438 12.4313C109.679 13.6734 108.607 14.694 107.329 15.3908C106.679 15.7498 105.988 16.0288 105.271 16.2216C103.77 16.6224 102.191 16.6224 100.69 16.2216C99.9699 16.0302 99.2762 15.7512 98.6244 15.3908C97.9931 15.0375 97.4083 14.6068 96.8836 14.1089C96.3688 13.6062 95.9171 13.0429 95.5384 12.4313C95.1638 11.8124 94.8712 11.1474 94.6679 10.4531C94.4662 9.73727 94.365 8.99692 94.3672 8.25326ZM98.0388 8.25326C98.0313 8.94764 98.1631 9.63647 98.4266 10.279C98.6757 10.8694 99.0356 11.4066 99.4869 11.8616C99.9391 12.3202 100.477 12.6858 101.07 12.9377C101.676 13.1994 102.331 13.3315 102.992 13.3255C103.647 13.3323 104.295 13.2061 104.899 12.9544C105.503 12.7028 106.05 12.331 106.506 11.8616C106.952 11.4041 107.309 10.8674 107.558 10.279C107.949 9.33266 108.058 8.29328 107.871 7.28645C107.685 6.27962 107.21 5.34841 106.506 4.60536C106.055 4.14679 105.517 3.7835 104.923 3.5371C104.308 3.27528 103.645 3.14329 102.977 3.14937C102.316 3.14336 101.661 3.27542 101.054 3.5371C100.461 3.78629 99.9237 4.14922 99.4711 4.60536C99.0206 5.06095 98.6607 5.59801 98.4108 6.18796C98.1518 6.84748 98.0306 7.55303 98.0547 8.26115L98.0388 8.25326Z" fill="#FFFBFA"/>
<path d="M118.726 11.3229V16.1577H115.055V0.395035H121.852C122.634 0.385014 123.41 0.524701 124.139 0.806525C124.808 1.06582 125.421 1.45283 125.943 1.946C126.451 2.43659 126.852 3.02649 127.122 3.67894C127.413 4.37544 127.558 5.12403 127.549 5.87875C127.556 6.63509 127.414 7.38533 127.13 8.08645C126.866 8.73382 126.47 9.31878 125.967 9.80358C125.452 10.2938 124.844 10.6758 124.178 10.9272C123.454 11.196 122.687 11.3301 121.915 11.3229H118.726ZM121.702 8.15769C121.989 8.15496 122.273 8.09474 122.536 7.98059C122.8 7.86643 123.038 7.70062 123.237 7.49298C123.438 7.28271 123.596 7.03551 123.704 6.765C123.817 6.47797 123.874 6.17155 123.87 5.86291C123.871 5.55447 123.815 5.24851 123.704 4.96084C123.595 4.68644 123.437 4.43432 123.237 4.21702C123.044 4.00525 122.81 3.83554 122.548 3.7185C122.284 3.59151 121.995 3.52656 121.702 3.52859H118.726V8.15769H121.702Z" fill="#FFFBFA"/>
<path d="M137.216 5.23035C137.988 5.2231 138.755 5.35719 139.479 5.626C140.145 5.87545 140.754 6.25773 141.267 6.74963C141.771 7.23443 142.167 7.81939 142.431 8.46676C142.714 9.16788 142.857 9.91815 142.85 10.6745C142.859 11.4292 142.714 12.1778 142.423 12.8743C142.153 13.5267 141.752 14.1166 141.244 14.6072C140.722 15.1004 140.109 15.4874 139.44 15.7467C138.713 16.0279 137.94 16.1676 137.161 16.1582H130.355V0.395508H134.027V5.23035H137.216ZM134.051 8.39555V13.0246H137.034C137.324 13.0266 137.612 12.9616 137.873 12.8347C138.135 12.7158 138.372 12.5464 138.569 12.3362C138.767 12.1188 138.922 11.8666 139.028 11.5924C139.139 11.3047 139.196 10.9987 139.194 10.6903C139.198 10.3817 139.142 10.0753 139.028 9.78824C138.924 9.51809 138.768 9.27082 138.569 9.06023C138.369 8.85737 138.133 8.69367 137.873 8.57755C137.61 8.45672 137.324 8.39461 137.034 8.39555H134.051Z" fill="#FFFBFA"/>
<path d="M74.2138 27.2841H67.8202V35.9093C67.8409 36.6021 67.7001 37.2903 67.4087 37.9192C67.1555 38.4449 66.7877 38.9072 66.3325 39.2723C65.8854 39.6325 65.3719 39.9014 64.8211 40.0636C64.2703 40.2205 63.7005 40.3004 63.1278 40.301C62.8633 40.3012 62.599 40.2853 62.3365 40.2535C62.1154 40.2272 61.896 40.1875 61.6797 40.1348L62.3206 37.0883H62.4472H62.6688H62.8904H63.0407C63.1976 37.096 63.3542 37.0688 63.4993 37.0086C63.6443 36.9484 63.7742 36.8567 63.8795 36.7402C64.0971 36.4374 64.2008 36.0674 64.1723 35.6956V24.1348H77.8855V39.8974H74.2376L74.2138 27.2841Z" fill="#FFFBFA"/>
<path d="M81.297 31.9915C81.2941 31.2473 81.398 30.5065 81.6056 29.7917C81.8088 29.0974 82.1014 28.4324 82.476 27.8135C82.8478 27.1994 83.3003 26.6378 83.8212 26.1438C84.3442 25.6438 84.9293 25.2129 85.5621 24.8619C86.2073 24.4935 86.8993 24.2141 87.6194 24.0311C89.1217 23.6407 90.6988 23.6407 92.201 24.0311C93.6294 24.4045 94.9409 25.131 96.0151 26.1438C96.5408 26.6355 96.9961 27.1974 97.3682 27.8135C97.7428 28.4324 98.0354 29.0974 98.2386 29.7917C98.6503 31.2294 98.6503 32.7537 98.2386 34.1913C98.0354 34.8857 97.7428 35.5506 97.3682 36.1696C96.9942 36.7868 96.5391 37.351 96.0151 37.8471C95.4892 38.3473 94.9016 38.7781 94.2663 39.129C93.6145 39.4895 92.9209 39.7685 92.201 39.9599C90.7001 40.3607 89.1203 40.3607 87.6194 39.9599C86.9016 39.7699 86.2105 39.4908 85.5621 39.129C84.9293 38.778 84.3442 38.3472 83.8212 37.8471C82.775 36.8438 82.0109 35.5831 81.6056 34.1913C81.3974 33.4767 81.2935 32.7358 81.297 31.9915ZM84.9765 31.9915C84.9689 32.6859 85.1008 33.3748 85.3642 34.0173C85.6107 34.6072 85.9679 35.1444 86.4166 35.5999C86.8688 36.0585 87.4065 36.4241 87.9992 36.676C88.6062 36.9377 89.2611 37.0698 89.9221 37.0638C90.5764 37.0706 91.2252 36.9444 91.8292 36.6927C92.4331 36.4411 92.9796 36.0692 93.4355 35.5999C93.8842 35.1428 94.2438 34.6061 94.4958 34.0173C95.013 32.7163 95.013 31.2668 94.4958 29.9658C94.243 29.3774 93.8835 28.8408 93.4355 28.3832C92.7383 27.6847 91.8487 27.2099 90.8804 27.0196C89.912 26.8293 88.9089 26.9322 87.9992 27.315C87.4069 27.5641 86.8693 27.9271 86.4166 28.3832C85.9685 28.8391 85.6113 29.3762 85.3642 29.9658C85.0997 30.6108 84.9679 31.3024 84.9765 31.9994V31.9915Z" fill="#FFFBFA"/>
<path d="M109.632 35.7431L105.675 30.1486V39.9291H102.012V24.1348H105.177L110.075 30.8371L115.036 24.1348H118.249V39.8974H114.585V30.1486L110.534 35.6877L109.632 35.7431Z" fill="#FFFBFA"/>
<path d="M132.986 37.3971H126.378L125.381 39.8976H121.496L127.953 24.1191H131.403L137.86 39.8976H133.991L132.986 37.3971ZM127.637 34.2319H131.72L129.805 29.4841L129.694 28.9777L129.575 29.4841L127.637 34.2319Z" fill="#FFFBFA"/>
<path d="M144.207 32.0636L150.308 24.1506H154.573L149.034 31.1773L154.81 39.8816H150.474L146.644 33.844L144.199 36.938V39.8816H140.527V24.1348H144.199L144.207 32.0636Z" fill="#FFFBFA"/>
<path d="M157.402 24.1348H161.058V33.5591L168.583 24.1348H171.749V39.8974H168.069V30.4493L160.568 39.8974H157.402V24.1348Z" fill="#FFFBFA"/>
<path d="M175.754 24.1348H179.433V30.5205H186.302V24.1348H189.989V39.8974H186.302V33.6699H179.433V39.8974H175.754V24.1348Z" fill="#FFFBFA"/>
<path d="M65.7372 54.6311H62.8945L62.3491 55.912H61.6797L64.0101 50.4248H64.6134L66.9355 55.912H66.2661L65.7372 54.6311ZM63.1341 54.0774H65.5059L64.3406 51.3338V51.2429V51.3338L63.1341 54.0774Z" fill="#F1A482"/>
<path d="M72.9685 55.912H68.7457V57.1102H68.1094V55.35H68.4399C68.528 55.2907 68.6037 55.2149 68.6631 55.1269C68.7423 55.0193 68.8089 54.9028 68.8614 54.7798C68.9275 54.6476 68.9853 54.5071 69.0432 54.3584C69.101 54.2096 69.1424 54.0609 69.1837 53.9121C69.225 53.7634 69.2581 53.6312 69.2911 53.4907C69.3242 53.3502 69.3324 53.2428 69.3407 53.1519L69.5969 50.4248H72.9024V55.3831H73.5718V57.1433H72.9355L72.9685 55.912ZM69.9853 53.218C69.9651 53.404 69.9347 53.5889 69.8944 53.7717C69.8944 53.9617 69.8035 54.1601 69.7456 54.3419C69.6813 54.5276 69.6068 54.7097 69.5225 54.8873C69.4474 55.0521 69.3531 55.2074 69.2415 55.35H72.3074V50.995H70.1919L69.9853 53.218Z" fill="#F1A482"/>
<path d="M75.4141 55.9113V50.4242H77.7362C77.9478 50.42 78.1582 50.4564 78.356 50.5316C78.54 50.5871 78.7094 50.6825 78.8523 50.8111C78.9951 50.9397 79.1079 51.0982 79.1824 51.2753C79.2634 51.4601 79.3029 51.6604 79.2981 51.8621C79.2984 51.985 79.2817 52.1073 79.2485 52.2257C79.2113 52.3424 79.1585 52.4536 79.0915 52.5562C79.023 52.6565 78.9425 52.7481 78.8518 52.8289C78.7672 52.9065 78.6692 52.9681 78.5626 53.0107C78.7112 53.0513 78.8512 53.1185 78.9758 53.2091C79.1073 53.2883 79.2223 53.3921 79.3146 53.5148C79.4125 53.6324 79.4881 53.7668 79.5377 53.9115C79.5938 54.0593 79.6218 54.2162 79.6204 54.3743C79.6254 54.599 79.5802 54.822 79.4881 55.0271C79.4032 55.2114 79.2791 55.375 79.1245 55.5064C78.9712 55.6394 78.7947 55.7431 78.6039 55.8122C78.407 55.8792 78.2003 55.9127 77.9924 55.9113H75.4141ZM76.0421 52.8289H77.6949C77.815 52.8283 77.9338 52.8039 78.0445 52.7571C78.1551 52.7103 78.2554 52.642 78.3395 52.5562C78.4272 52.4748 78.4975 52.3764 78.5461 52.267C78.6114 52.15 78.6509 52.0204 78.6617 51.8868C78.6618 51.7619 78.6365 51.6382 78.5874 51.5232C78.541 51.4122 78.4737 51.3112 78.389 51.2257C78.302 51.143 78.2014 51.0759 78.0915 51.0274C77.9801 50.9766 77.8587 50.9512 77.7362 50.953H76.0834L76.0421 52.8289ZM77.9097 55.3659C78.0427 55.366 78.1746 55.3407 78.2981 55.2915C78.4191 55.2426 78.5287 55.1695 78.6204 55.0767C78.7162 54.9871 78.7947 54.8807 78.8518 54.7627C78.9091 54.6326 78.9374 54.4916 78.9345 54.3495C78.936 54.211 78.9107 54.0735 78.8601 53.9445C78.8139 53.8246 78.7403 53.717 78.6452 53.6305C78.5535 53.5377 78.4439 53.4646 78.3229 53.4157C78.1984 53.3592 78.063 53.3309 77.9263 53.333H76.0421V55.3659H77.9097Z" fill="#F1A482"/>
<path d="M81.2384 53.1683C81.2359 52.9082 81.2721 52.6492 81.3458 52.3998C81.4113 52.1593 81.5086 51.9287 81.6351 51.7139C82.0272 51.0676 82.6556 50.5993 83.387 50.4082C83.643 50.339 83.9069 50.3028 84.1721 50.3008C84.6894 50.3077 85.1973 50.4411 85.6513 50.6892C85.8656 50.8116 86.0628 50.9616 86.238 51.1354C86.4192 51.3051 86.5751 51.4999 86.7008 51.7139C86.8265 51.9301 86.9264 52.1603 86.9983 52.3998C87.1414 52.8994 87.1414 53.4291 86.9983 53.9286C86.9263 54.1655 86.8265 54.393 86.7008 54.6063C86.5772 54.8218 86.4211 55.0169 86.238 55.1847C86.0628 55.3585 85.8656 55.5086 85.6513 55.631C85.4301 55.7562 85.1941 55.8533 84.9489 55.9202C84.6953 55.9867 84.4342 56.02 84.1721 56.0194C83.9072 56.02 83.6434 55.9867 83.387 55.9202C82.9027 55.7863 82.4596 55.5334 82.0979 55.1847C81.9171 55.0146 81.7613 54.8199 81.6351 54.6063C81.5086 54.3944 81.4113 54.1665 81.3458 53.9286C81.2726 53.6819 81.2364 53.4257 81.2384 53.1683ZM81.8747 53.1683C81.8723 53.4771 81.9313 53.7833 82.0483 54.0691C82.1666 54.3404 82.3347 54.5871 82.5441 54.7963C82.753 55.004 82.9999 55.1695 83.2713 55.2839C83.5551 55.4037 83.8599 55.4654 84.1679 55.4654C84.4759 55.4654 84.7808 55.4037 85.0646 55.2839C85.3371 55.1716 85.5844 55.0058 85.7918 54.7963C86.0011 54.5871 86.1693 54.3404 86.2876 54.0691C86.4074 53.7825 86.4691 53.4749 86.4691 53.1642C86.4691 52.8536 86.4074 52.546 86.2876 52.2593C86.1679 51.9864 85.9999 51.7372 85.7918 51.5238C85.4681 51.2146 85.0627 51.0044 84.6234 50.918C84.1842 50.8316 83.7293 50.8726 83.3126 51.0363C83.0432 51.1544 82.797 51.3195 82.5854 51.5238C82.3773 51.7372 82.2093 51.9864 82.0896 52.2593C81.9578 52.5449 81.8847 52.854 81.8747 53.1683Z" fill="#F1A482"/>
<path d="M89.7296 53.9865L92.655 50.4248H93.407L91.4072 52.8461L93.5392 55.912H92.779L90.994 53.3254L89.7296 54.8294V55.912H89.1016V50.4248H89.7296V53.9865Z" fill="#F1A482"/>
<path d="M98.5814 54.6311H95.7387L95.1933 55.912H94.5156L96.8543 50.4248H97.4658L99.7962 55.912H99.1186L98.5814 54.6311ZM95.9701 54.0774H98.3418L97.1849 51.3338V51.2429V51.3338L95.9701 54.0774Z" fill="#F1A482"/>
<path d="M102.084 50.9867H100.324V50.4248H104.456V50.9867H102.688V55.945H102.051L102.084 50.9867Z" fill="#F1A482"/>
</svg>
