<svg width="226" height="60" viewBox="0 0 226 60" fill="none" xmlns="http://www.w3.org/2000/svg">
<path d="M19.0586 44.9996L22.5286 48.4697V16.3896C21.3521 16.4825 20.1889 16.7004 19.0586 17.0396V44.9996Z" fill="#F1A482"/>
<path d="M26 48.4596L29.46 44.9996V16.9996C28.3331 16.6603 27.1732 16.4424 26 16.3496V48.4596Z" fill="#F1A482"/>
<path d="M32.9316 14.6604C34.4908 15.4112 35.9084 16.4261 37.1216 17.6604L38.9316 14.5804C36.2516 12.1104 31.6116 9.36035 24.2616 9.36035C16.9116 9.36035 12.2616 12.1104 9.60156 14.5804L11.4016 17.6604C12.6186 16.4263 14.0395 15.4114 15.6016 14.6604C16.709 14.1312 17.8686 13.719 19.0616 13.4303C20.2007 13.1516 21.3616 12.9709 22.5316 12.8904C23.0916 12.8904 23.6616 12.8304 24.2616 12.8304C24.8616 12.8304 25.4416 12.8304 26.0016 12.8904C27.1682 12.9709 28.3258 13.1516 29.4616 13.4303C30.6577 13.7191 31.8206 14.1313 32.9316 14.6604Z" fill="#F1A482"/>
<path d="M32.9317 46.4302L29.4617 49.9002L28.7417 50.6102L24.2617 55.1002L19.7817 50.6102L19.0617 49.9002L15.6017 46.4302L13.1117 44.0002C11.997 44.6388 10.7783 45.0755 9.51172 45.2902L24.2617 60.0002L39.0217 45.2402C37.7522 45.0248 36.5303 44.5882 35.4117 43.9502L32.9317 46.4302Z" fill="#F1A482"/>
<path d="M13.38 39.31C14.5859 37.9233 15.25 36.1476 15.25 34.31V34H11.78V34.32C11.7746 35.0313 11.5881 35.7295 11.2382 36.3488C10.8883 36.9682 10.3865 37.4882 9.78002 37.86C9.12067 38.273 8.35806 38.4914 7.58003 38.49C7.14884 38.4902 6.72029 38.4227 6.31003 38.29C5.46618 38.0162 4.73131 37.4811 4.21176 36.762C3.69221 36.0429 3.41493 35.1771 3.42003 34.29V34H2.41268e-05V34.32C-0.00287003 35.4725 0.254651 36.6106 0.753351 37.6496C1.25205 38.6886 1.97904 39.6014 2.88003 40.32C3.89004 41.1149 5.08295 41.6443 6.35002 41.86C6.7693 41.9351 7.1941 41.9752 7.62003 41.98C8.61874 41.98 9.60763 41.7829 10.53 41.4C11.6305 40.936 12.6067 40.2201 13.38 39.31Z" fill="#F1A482"/>
<path d="M7.62984 18.0596L6.35984 20.2296L2.88984 26.1596L0.339844 30.5196H2.33984H2.88984H4.34984L6.35984 27.0996L7.62984 24.9296L9.81984 28.6796L10.8998 30.5196H12.9098H13.2898H14.9198L13.2898 27.7296L9.81984 21.8096L7.62984 18.0596Z" fill="#F1A482"/>
<path d="M35.6211 30.5196H37.6311L38.7111 28.6796L40.9111 24.9296L42.1811 27.0996L44.1811 30.5196H45.6511H46.1911H48.2011L45.6511 26.1596L42.1811 20.2296L40.9111 18.0596L38.7111 21.8096L35.2511 27.7296L33.6211 30.5196H35.2511H35.6211Z" fill="#F1A482"/>
<path d="M45.6417 34H45.0617V34.32C45.0699 35.2079 44.7939 36.0751 44.2739 36.7948C43.7539 37.5145 43.0173 38.049 42.1717 38.32C41.7617 38.4535 41.333 38.521 40.9017 38.52C40.127 38.5201 39.368 38.3017 38.7117 37.89C38.1046 37.5189 37.6023 36.999 37.2523 36.3796C36.9023 35.7601 36.7162 35.0615 36.7117 34.35V34H33.2617V34.32C33.2618 36.1576 33.9259 37.9333 35.1317 39.32C35.9065 40.2169 36.8786 40.922 37.9717 41.38C38.8944 41.7619 39.8831 41.959 40.8817 41.96C41.3077 41.9562 41.7326 41.916 42.1517 41.84C43.4194 41.6264 44.6128 41.0967 45.6217 40.3C46.5256 39.5834 47.2553 38.6712 47.7559 37.632C48.2565 36.5927 48.5149 35.4535 48.5117 34.3V34H45.6217H45.6417Z" fill="#F1A482"/>
<path d="M6.25953 12.48C6.45953 12.48 6.66953 12.48 6.86953 12.48C7.31233 12.4379 7.74866 12.3439 8.16953 12.2C8.99744 11.9267 9.75888 11.4829 10.4048 10.8973C11.0507 10.3117 11.5667 9.59725 11.9195 8.8C12.1759 8.21881 12.3412 7.60156 12.4095 6.97H8.90953C8.7501 7.55133 8.40474 8.06448 7.92622 8.43105C7.44769 8.79761 6.86232 8.99744 6.25953 9C5.52396 9 4.81837 8.70849 4.2973 8.1893C3.77624 7.67011 3.48218 6.96556 3.47953 6.23C3.48481 5.49617 3.78003 4.79419 4.30081 4.27716C4.82159 3.76013 5.52568 3.46998 6.25953 3.47H42.2595C42.9942 3.47 43.6987 3.76184 44.2182 4.28131C44.7377 4.80079 45.0295 5.50536 45.0295 6.24001C45.0269 6.97292 44.7339 7.67492 44.2147 8.19223C43.6955 8.70955 42.9925 9 42.2595 9C41.6459 8.9977 41.0502 8.79243 40.5655 8.41618C40.0807 8.03994 39.734 7.51387 39.5795 6.92H36.0595C36.1278 7.55156 36.2931 8.16881 36.5495 8.75C36.9045 9.54758 37.4224 10.2621 38.07 10.8476C38.7175 11.4332 39.4804 11.8768 40.3095 12.15C40.7267 12.2949 41.1598 12.3889 41.5995 12.43C41.8095 12.43 42.0095 12.43 42.2195 12.43C43.8737 12.4273 45.4593 11.7691 46.629 10.5994C47.7986 9.42977 48.4569 7.84414 48.4595 6.19C48.4438 4.55144 47.7853 2.98457 46.6257 1.82681C45.466 0.669058 43.8981 0.0130341 42.2595 0H6.25953C4.60458 0 3.01741 0.657425 1.84718 1.82765C0.676956 2.99788 0.0195312 4.58505 0.0195312 6.24001C0.0195312 7.89496 0.676956 9.48212 1.84718 10.6523C3.01741 11.8226 4.60458 12.48 6.25953 12.48Z" fill="#F1A482"/>
<path d="M70.3219 21.2056L78.0319 11.2056H83.4219L76.4219 20.0856L83.7119 31.0856H78.2419L73.4019 23.4556L70.3119 27.3656V31.0856H65.6719V11.1855H70.3119L70.3219 21.2056Z" fill="#FFFBFA"/>
<path d="M87.7227 21.1156C87.7197 20.175 87.8511 19.2389 88.1127 18.3356C88.3653 17.4566 88.7353 16.6156 89.2127 15.8356C89.6851 15.0612 90.2566 14.3519 90.9127 13.7256C91.5737 13.0936 92.3131 12.5491 93.1127 12.1055C93.9281 11.64 94.8027 11.2868 95.7127 11.0556C96.6598 10.8096 97.6343 10.6852 98.6127 10.6855C99.5879 10.6859 100.559 10.8102 101.503 11.0556C102.415 11.2886 103.293 11.6417 104.113 12.1055C104.915 12.5491 105.658 13.0935 106.323 13.7256C106.985 14.349 107.56 15.0587 108.033 15.8356C108.506 16.6178 108.876 17.4581 109.133 18.3356C109.394 19.2389 109.526 20.175 109.523 21.1156C109.526 22.0594 109.395 22.9989 109.133 23.9055C108.876 24.7798 108.506 25.6169 108.033 26.3956C107.563 27.1773 106.987 27.8907 106.323 28.5155C105.661 29.1539 104.918 29.702 104.113 30.1456C103.289 30.5885 102.412 30.9246 101.503 31.1456C100.56 31.399 99.5886 31.5268 98.6127 31.5255C97.6335 31.5275 96.6584 31.3997 95.7127 31.1456C94.8065 30.926 93.9325 30.5898 93.1127 30.1456C92.3106 29.7018 91.5708 29.1537 90.9127 28.5155C90.2541 27.8878 89.6824 27.1748 89.2127 26.3956C88.7354 25.619 88.3654 24.7814 88.1127 23.9055C87.8504 22.9989 87.7191 22.0594 87.7227 21.1156ZM92.3627 21.1156C92.3582 21.9926 92.5246 22.8622 92.8527 23.6756C93.1667 24.4369 93.6213 25.1324 94.1927 25.7256C94.7673 26.2989 95.4461 26.7571 96.1927 27.0755C96.9598 27.4062 97.7874 27.5732 98.6227 27.5656C99.4678 27.5741 100.305 27.4072 101.083 27.0755C101.831 26.7606 102.511 26.302 103.083 25.7256C103.654 25.1346 104.106 24.4384 104.413 23.6756C104.746 22.8636 104.912 21.9931 104.903 21.1156C104.912 20.238 104.746 19.3675 104.413 18.5556C104.104 17.8087 103.652 17.1293 103.083 16.5556C102.514 15.9729 101.834 15.5104 101.083 15.1956C100.305 14.8639 99.4678 14.697 98.6227 14.7056C97.7874 14.698 96.9598 14.8649 96.1927 15.1956C95.4436 15.5139 94.7642 15.9759 94.1927 16.5556C93.6236 17.1315 93.1689 17.8101 92.8527 18.5556C92.5233 19.3721 92.3569 20.2451 92.3627 21.1256V21.1156Z" fill="#FFFBFA"/>
<path d="M115.363 11.1855H120.003V19.2556H128.693V11.1855H133.353V31.1055H128.693V23.2455H120.003V31.1055H115.363V11.1855Z" fill="#FFFBFA"/>
<path d="M140.043 11.1855H144.683V27.1055H152.973V11.1855H157.623V27.1055H160.903V35.5656H156.263V31.1055H140.043V11.1855Z" fill="#FFFBFA"/>
<path d="M166.625 11.1855H180.625V15.1855H171.235V19.2556H179.285V23.2556H171.235V27.1456H180.755V31.1456H166.625V11.1855Z" fill="#FFFBFA"/>
<path d="M199.931 15.1756H191.081V31.1055H186.441V11.1855H204.621V31.1055H199.981L199.931 15.1756Z" fill="#FFFBFA"/>
<path d="M215.312 15.1758H209.742V11.1758H225.522V15.1758H219.952V31.1058H215.312V15.1758Z" fill="#FFFBFA"/>
<path d="M65.0417 46.675V48.315H64.5117V43.665H66.4017C66.61 43.6649 66.8166 43.7022 67.0117 43.775C67.1946 43.8483 67.3612 43.957 67.5017 44.095C67.6363 44.2287 67.7418 44.3887 67.8117 44.565C67.8894 44.7588 67.9268 44.9663 67.9217 45.175C67.9277 45.3805 67.8902 45.585 67.8117 45.775C67.7397 45.9532 67.6345 46.1161 67.5017 46.255C67.3601 46.3844 67.1979 46.4892 67.0217 46.565C66.8266 46.6379 66.62 46.6752 66.4117 46.675H65.0417ZM66.3917 46.205C66.529 46.2045 66.6648 46.1773 66.7917 46.125C66.9064 46.0692 67.0112 45.9949 67.1017 45.905C67.1943 45.8112 67.2659 45.6987 67.3117 45.575C67.364 45.4481 67.3912 45.3123 67.3917 45.175C67.3912 45.0345 67.3641 44.8954 67.3117 44.765C67.2611 44.6438 67.19 44.5322 67.1017 44.435C67.0076 44.3449 66.8995 44.2707 66.7817 44.215C66.6548 44.1627 66.519 44.1356 66.3817 44.135H65.0417V46.205H66.3917Z" fill="#F1A482"/>
<path d="M69.4922 43.665H72.5522V44.145H70.0322V45.775H72.2222V46.245H70.0322V47.835H72.6222V48.315H69.5322L69.4922 43.665Z" fill="#F1A482"/>
<path d="M74.1836 43.665H74.7136V47.835H76.8436V43.665H77.3736V47.835H79.5036V43.665H80.0336V48.315H74.1836V43.665Z" fill="#F1A482"/>
<path d="M81.9648 43.665H85.0349V44.145H82.5049V45.775H84.7048V46.245H82.5049V47.835H85.0648V48.315H81.9648V43.665Z" fill="#F1A482"/>
<path d="M86.625 43.665H87.165V45.775H89.945V43.665H90.485V48.315H89.945V46.245H87.165V48.315H86.625V43.665Z" fill="#F1A482"/>
<path d="M92.5117 43.665H93.0417V47.375L96.0417 43.665H96.4917V48.315H95.9517V44.615L93.0017 48.315H92.5517L92.5117 43.665Z" fill="#F1A482"/>
<path d="M98.3828 43.665H101.443V44.145H98.9128V45.775H101.113V46.245H98.9128V47.835H101.473V48.315H98.3828V43.665Z" fill="#F1A482"/>
<path d="M105.324 43.6654H105.854V48.3154H105.324V43.6654ZM107.374 45.7454V46.1954H105.694V45.7554L107.374 45.7454ZM106.934 45.9854C106.934 45.7656 106.964 45.5469 107.024 45.3354C107.081 45.1316 107.165 44.9364 107.274 44.7554C107.377 44.5751 107.505 44.4102 107.654 44.2654C107.809 44.1223 107.98 43.9981 108.164 43.8954C108.349 43.7859 108.547 43.7018 108.754 43.6454C108.97 43.593 109.192 43.5662 109.414 43.5654C109.637 43.5662 109.858 43.593 110.074 43.6454C110.281 43.7018 110.48 43.7859 110.664 43.8954C110.847 43.9958 111.015 44.1202 111.164 44.2654C111.319 44.4073 111.451 44.5726 111.554 44.7554C111.667 44.936 111.754 45.1312 111.814 45.3354C111.866 45.5483 111.893 45.7664 111.894 45.9854C111.894 46.2012 111.867 46.4161 111.814 46.6254C111.754 46.8297 111.667 47.0248 111.554 47.2054C111.453 47.39 111.321 47.5557 111.164 47.6954C111.015 47.8438 110.847 47.9716 110.664 48.0754C110.477 48.1775 110.279 48.258 110.074 48.3154C109.859 48.3761 109.637 48.4064 109.414 48.4054C109.191 48.4064 108.969 48.3761 108.754 48.3154C108.549 48.258 108.351 48.1775 108.164 48.0754C107.98 47.9692 107.809 47.8417 107.654 47.6954C107.503 47.5528 107.375 47.3875 107.274 47.2054C107.165 47.0245 107.081 46.8293 107.024 46.6254C106.964 46.4175 106.933 46.202 106.934 45.9854ZM107.464 45.9854C107.466 46.2502 107.52 46.5119 107.624 46.7554C107.722 46.9823 107.861 47.1892 108.034 47.3654C108.213 47.5396 108.424 47.6787 108.654 47.7754C108.893 47.8837 109.152 47.9384 109.414 47.9354C109.676 47.9384 109.936 47.8837 110.174 47.7754C110.405 47.6787 110.615 47.5396 110.794 47.3654C110.967 47.1892 111.106 46.9823 111.204 46.7554C111.313 46.5134 111.367 46.2507 111.364 45.9854C111.368 45.7201 111.314 45.4572 111.204 45.2154C111.107 44.985 110.968 44.7747 110.794 44.5954C110.613 44.424 110.403 44.2852 110.174 44.1854C109.934 44.0848 109.675 44.0338 109.414 44.0354C109.153 44.0338 108.895 44.0848 108.654 44.1854C108.425 44.2852 108.216 44.424 108.034 44.5954C107.86 44.7747 107.721 44.985 107.624 45.2154C107.52 45.459 107.466 45.7207 107.464 45.9854Z" fill="#F1A482"/>
<path d="M114.185 46.6751V48.3151H113.625V43.6651H115.515C115.723 43.664 115.93 43.7013 116.125 43.7751C116.308 43.8483 116.474 43.957 116.615 44.0951C116.75 44.2288 116.855 44.3887 116.925 44.5651C117.006 44.7581 117.047 44.9657 117.045 45.1751C117.048 45.3813 117.007 45.5858 116.925 45.7751C116.853 45.9532 116.748 46.1161 116.615 46.2551C116.477 46.3888 116.314 46.4941 116.135 46.5651C115.94 46.6388 115.733 46.6761 115.525 46.6751H114.185ZM115.525 46.2051C115.662 46.2062 115.799 46.1789 115.925 46.1251C116.043 46.0694 116.151 45.9951 116.245 45.905C116.338 45.8112 116.409 45.6987 116.455 45.575C116.504 45.4475 116.528 45.3117 116.525 45.1751C116.529 45.0341 116.502 44.894 116.445 44.7651C116.394 44.6439 116.323 44.5322 116.235 44.435C116.143 44.3428 116.034 44.2682 115.915 44.215C115.789 44.1612 115.652 44.134 115.515 44.1351H114.185V46.2051H115.525Z" fill="#F1A482"/>
<path d="M118.625 43.665H119.165V47.375L122.165 43.665H122.605V48.315H122.065V44.615L119.065 48.315H118.625V43.665Z" fill="#F1A482"/>
<path d="M128.192 48.3153H124.622V49.3153H124.082V47.8253H124.362C124.44 47.778 124.505 47.7129 124.552 47.6353C124.617 47.5436 124.674 47.4465 124.722 47.3453C124.775 47.2386 124.825 47.1186 124.872 46.9853C124.921 46.8616 124.961 46.7346 124.992 46.6053C125.03 46.4909 125.06 46.3739 125.082 46.2553C125.082 46.1453 125.082 46.0453 125.082 45.9653L125.292 43.6553H128.112V47.8253H128.682V49.3153H128.142L128.192 48.3153ZM125.622 46.0653C125.608 46.2232 125.584 46.3801 125.552 46.5353C125.552 46.7053 125.472 46.8653 125.422 47.0253C125.369 47.1827 125.306 47.3364 125.232 47.4853C125.169 47.6248 125.088 47.7558 124.992 47.8753H127.622V44.1853H125.832L125.622 46.0653Z" fill="#F1A482"/>
<path d="M130.263 43.665H130.793V47.375L133.793 43.665H134.243V48.315H133.623V44.615L130.673 48.315H130.223L130.263 43.665Z" fill="#F1A482"/>
<path d="M136.012 43.665H136.542V45.455C136.521 45.764 136.621 46.0689 136.822 46.305C136.924 46.4048 137.047 46.4813 137.181 46.5296C137.316 46.5779 137.459 46.5968 137.602 46.585C137.751 46.5875 137.899 46.5532 138.032 46.485C138.165 46.4226 138.284 46.3342 138.382 46.225C138.485 46.1105 138.566 45.9784 138.622 45.835C138.679 45.6817 138.706 45.5187 138.702 45.355V43.665H139.242V48.315H138.722V46.315C138.676 46.4115 138.619 46.5021 138.552 46.585C138.471 46.6753 138.381 46.7558 138.282 46.825C138.176 46.8955 138.062 46.9526 137.942 46.995C137.809 47.036 137.671 47.0563 137.532 47.055C137.307 47.0577 137.083 47.0205 136.872 46.945C136.693 46.8706 136.532 46.758 136.402 46.615C136.271 46.4709 136.172 46.3004 136.112 46.115C136.05 45.9006 136.019 45.6782 136.022 45.455L136.012 43.665Z" fill="#F1A482"/>
<path d="M141.305 43.665H144.365V44.145H141.845V45.775H144.045V46.245H141.845V47.835H144.395V48.315H141.305V43.665Z" fill="#F1A482"/>
<path d="M149.844 47.6354C149.734 47.7493 149.613 47.853 149.484 47.9454C149.347 48.0351 149.203 48.1153 149.054 48.1854C148.9 48.2551 148.739 48.3087 148.574 48.3454C148.404 48.3862 148.229 48.4064 148.054 48.4054C147.831 48.4064 147.609 48.3761 147.394 48.3154C147.187 48.2563 146.985 48.1759 146.794 48.0754C146.613 47.9691 146.445 47.8415 146.294 47.6954C146.143 47.5503 146.012 47.3855 145.904 47.2054C145.798 47.024 145.717 46.8289 145.664 46.6254C145.604 46.4175 145.573 46.202 145.574 45.9854C145.574 45.7656 145.604 45.5469 145.664 45.3354C145.717 45.132 145.798 44.9368 145.904 44.7554C146.014 44.5771 146.145 44.4126 146.294 44.2654C146.445 44.1225 146.613 43.9982 146.794 43.8954C146.983 43.7876 147.185 43.7036 147.394 43.6454C147.61 43.593 147.832 43.5662 148.054 43.5654C148.229 43.5669 148.403 43.5837 148.574 43.6154C148.736 43.6537 148.893 43.7072 149.044 43.7754C149.197 43.8374 149.341 43.918 149.474 44.0154C149.604 44.1103 149.728 44.2139 149.844 44.3254L149.504 44.6854C149.327 44.4785 149.104 44.3144 148.854 44.2054C148.602 44.0943 148.33 44.0364 148.054 44.0354C147.793 44.0338 147.535 44.0848 147.294 44.1854C147.064 44.2821 146.853 44.4212 146.674 44.5954C146.501 44.7773 146.359 44.9868 146.254 45.2154C146.154 45.4597 146.103 45.7214 146.104 45.9854C146.103 46.2495 146.154 46.5112 146.254 46.7554C146.359 46.9809 146.501 47.1872 146.674 47.3654C146.851 47.5424 147.062 47.6819 147.294 47.7754C147.533 47.8837 147.792 47.9384 148.054 47.9354C148.334 47.9355 148.611 47.8741 148.864 47.7554C149.109 47.6464 149.327 47.4861 149.504 47.2854L149.844 47.6354Z" fill="#F1A482"/>
<path d="M152.763 46.6855L155.243 43.6855H155.873L154.183 45.7355L155.993 48.3356H155.343L153.833 46.1356L152.763 47.4156V48.3356H152.223V43.6855H152.763V46.6855Z" fill="#F1A482"/>
<path d="M157.363 43.665H157.893V47.375L160.893 43.665H161.343V48.315H160.803V44.615L157.853 48.315H157.403L157.363 43.665Z" fill="#F1A482"/>
<path d="M164.872 45.535L166.242 43.665H166.892L165.212 45.895L167.002 48.315H166.352L164.872 46.265L163.392 48.315H162.742L164.532 45.895L162.852 43.665H163.502L164.872 45.535Z" fill="#F1A482"/>
<path d="M173.505 47.0652C173.512 46.9306 173.484 46.7964 173.425 46.6752C173.374 46.5662 173.295 46.4729 173.195 46.4052C173.088 46.3309 172.97 46.2736 172.845 46.2352C172.695 46.1893 172.541 46.1558 172.385 46.1352H171.255V45.6652H172.385C172.518 45.6572 172.649 45.6302 172.775 45.5852C172.882 45.5578 172.981 45.5065 173.065 45.4352C173.146 45.3773 173.208 45.2975 173.245 45.2052C173.288 45.1006 173.308 44.9882 173.305 44.8752C173.307 44.743 173.276 44.6124 173.215 44.4952C173.147 44.392 173.058 44.3035 172.955 44.2352C172.855 44.1612 172.743 44.1038 172.625 44.0652C172.474 44.0332 172.32 44.0165 172.165 44.0152H171.865L171.545 44.0752C171.438 44.1014 171.334 44.1382 171.235 44.1852C171.145 44.2267 171.06 44.2805 170.985 44.3452L170.625 44.0652C170.703 43.9742 170.798 43.8994 170.905 43.8452C171.024 43.7807 171.152 43.7335 171.285 43.7052C171.422 43.6637 171.563 43.6336 171.705 43.6152H172.115C172.344 43.6148 172.572 43.6416 172.795 43.6952C172.988 43.7458 173.171 43.8304 173.335 43.9452C173.483 44.0547 173.606 44.1945 173.695 44.3552C173.777 44.5339 173.818 44.7287 173.815 44.9252C173.818 45.0577 173.798 45.1897 173.755 45.3152C173.717 45.4215 173.659 45.5198 173.585 45.6052C173.515 45.6855 173.434 45.7561 173.345 45.8152C173.251 45.8738 173.15 45.9208 173.045 45.9552C173.17 45.9887 173.29 46.0356 173.405 46.0952C173.52 46.15 173.625 46.2245 173.715 46.3152C173.805 46.4167 173.879 46.5313 173.935 46.6552C173.994 46.8082 174.021 46.9715 174.015 47.1352C174.019 47.3418 173.967 47.5456 173.865 47.7252C173.763 47.9011 173.618 48.0488 173.445 48.1552C173.265 48.2756 173.065 48.3636 172.855 48.4152C172.63 48.4759 172.398 48.5062 172.165 48.5052C171.982 48.5205 171.798 48.5205 171.615 48.5052C171.442 48.477 171.272 48.4369 171.105 48.3852C170.96 48.3307 170.819 48.2638 170.685 48.1852C170.567 48.1179 170.462 48.0298 170.375 47.9252L170.715 47.6052C170.792 47.6811 170.879 47.7451 170.975 47.7952C171.083 47.8572 171.197 47.9075 171.315 47.9452C171.449 47.9858 171.586 48.0159 171.725 48.0352C171.865 48.05 172.005 48.05 172.145 48.0352C172.31 48.0356 172.475 48.0154 172.635 47.9752C172.784 47.9399 172.926 47.879 173.055 47.7952C173.178 47.7219 173.284 47.623 173.365 47.5052C173.463 47.3802 173.513 47.224 173.505 47.0652Z" fill="#F1A482"/>
<path d="M178.702 47.225H176.302L175.842 48.315H175.262L177.262 43.665H177.782L179.782 48.315H179.202L178.702 47.225ZM176.502 46.755H178.502L177.502 44.435V44.355V44.435L176.502 46.755Z" fill="#F1A482"/>
<path d="M184.833 48.3153H181.263V49.3153H180.723V47.8253H181.003C181.08 47.778 181.145 47.7129 181.193 47.6353C181.257 47.5436 181.314 47.4465 181.363 47.3453C181.416 47.2386 181.466 47.1186 181.513 46.9853L181.633 46.6053L181.723 46.2553C181.73 46.1588 181.73 46.0618 181.723 45.9653L181.943 43.6553H184.763V47.8253H185.323V49.3153H184.793L184.833 48.3153ZM182.303 46.0653C182.288 46.2232 182.265 46.3801 182.233 46.5353C182.233 46.7053 182.153 46.8653 182.103 47.0253C182.053 47.1853 181.983 47.3353 181.913 47.4853C181.849 47.6248 181.769 47.7558 181.673 47.8753H184.273V44.1853H182.483L182.303 46.0653Z" fill="#F1A482"/>
<path d="M189.792 47.225H187.392L186.932 48.315H186.352L188.352 43.665H188.872L190.872 48.315H190.292L189.792 47.225ZM187.582 46.755H189.582L188.582 44.435V44.355V44.435L187.582 46.755Z" fill="#F1A482"/>
<path d="M192.102 43.665H192.622V45.455C192.599 45.7627 192.695 46.0674 192.892 46.305C192.996 46.4061 193.12 46.4835 193.256 46.5318C193.393 46.5801 193.538 46.5983 193.682 46.585C193.828 46.5875 193.973 46.5531 194.102 46.485C194.235 46.4226 194.354 46.3342 194.452 46.225C194.555 46.1105 194.636 45.9784 194.692 45.835C194.753 45.6823 194.783 45.5193 194.782 45.355V43.665H195.312V48.315H194.792V46.315C194.739 46.4095 194.679 46.4998 194.612 46.585C194.532 46.6753 194.441 46.7558 194.342 46.825C194.236 46.8955 194.122 46.9526 194.002 46.995C193.87 47.0367 193.731 47.0569 193.592 47.055C193.367 47.0577 193.144 47.0205 192.932 46.945C192.753 46.8706 192.593 46.758 192.462 46.615C192.331 46.4709 192.232 46.3004 192.172 46.115C192.11 45.9006 192.08 45.6782 192.082 45.455L192.102 43.665Z" fill="#F1A482"/>
</svg>
